<svg width="24" height="24" viewBox="0 0 24 24" fill="none" xmlns="http://www.w3.org/2000/svg">
<path d="M5.78573 2.57153C4.93325 2.57153 4.11568 2.91018 3.51288 3.51298C2.91009 4.11577 2.57144 4.93334 2.57144 5.78582V8.78582C2.57144 8.95632 2.63917 9.11983 2.75973 9.24039C2.88029 9.36095 3.0438 9.42868 3.2143 9.42868C3.3848 9.42868 3.54831 9.36095 3.66887 9.24039C3.78943 9.11983 3.85716 8.95632 3.85716 8.78582V5.78582C3.85716 5.27433 4.06034 4.78379 4.42202 4.42211C4.7837 4.06044 5.27424 3.85725 5.78573 3.85725H8.78573C8.95622 3.85725 9.11974 3.78952 9.2403 3.66896C9.36085 3.5484 9.42858 3.38489 9.42858 3.21439C9.42858 3.04389 9.36085 2.88038 9.2403 2.75982C9.11974 2.63926 8.95622 2.57153 8.78573 2.57153H5.78573ZM15.2143 2.57153C15.0438 2.57153 14.8803 2.63926 14.7597 2.75982C14.6392 2.88038 14.5714 3.04389 14.5714 3.21439C14.5714 3.38489 14.6392 3.5484 14.7597 3.66896C14.8803 3.78952 15.0438 3.85725 15.2143 3.85725H18.2143C18.7258 3.85725 19.2163 4.06044 19.578 4.42211C19.9397 4.78379 20.1429 5.27433 20.1429 5.78582V8.78582C20.1429 8.95632 20.2106 9.11983 20.3312 9.24039C20.4517 9.36095 20.6152 9.42868 20.7857 9.42868C20.9562 9.42868 21.1197 9.36095 21.2403 9.24039C21.3609 9.11983 21.4286 8.95632 21.4286 8.78582V5.78582C21.4286 4.93334 21.0899 4.11577 20.4871 3.51298C19.8843 2.91018 19.0668 2.57153 18.2143 2.57153H15.2143ZM3.85716 15.2144C3.85716 15.0439 3.78943 14.8804 3.66887 14.7598C3.54831 14.6393 3.3848 14.5715 3.2143 14.5715C3.0438 14.5715 2.88029 14.6393 2.75973 14.7598C2.63917 14.8804 2.57144 15.0439 2.57144 15.2144V18.2144C2.57144 19.0669 2.91009 19.8844 3.51288 20.4872C4.11568 21.09 4.93325 21.4287 5.78573 21.4287H8.78573C8.95622 21.4287 9.11974 21.3609 9.2403 21.2404C9.36085 21.1198 9.42858 20.9563 9.42858 20.7858C9.42858 20.6153 9.36085 20.4518 9.2403 20.3312C9.11974 20.2107 8.95622 20.143 8.78573 20.143H5.78573C5.27424 20.143 4.7837 19.9398 4.42202 19.5781C4.06034 19.2164 3.85716 18.7259 3.85716 18.2144V15.2144ZM21.4286 15.2144C21.4286 15.0439 21.3609 14.8804 21.2403 14.7598C21.1197 14.6393 20.9562 14.5715 20.7857 14.5715C20.6152 14.5715 20.4517 14.6393 20.3312 14.7598C20.2106 14.8804 20.1429 15.0439 20.1429 15.2144V18.2144C20.1429 18.7259 19.9397 19.2164 19.578 19.5781C19.2163 19.9398 18.7258 20.143 18.2143 20.143H15.2143C15.0438 20.143 14.8803 20.2107 14.7597 20.3312C14.6392 20.4518 14.5714 20.6153 14.5714 20.7858C14.5714 20.9563 14.6392 21.1198 14.7597 21.2404C14.8803 21.3609 15.0438 21.4287 15.2143 21.4287H18.2143C19.0668 21.4287 19.8843 21.09 20.4871 20.4872C21.0899 19.8844 21.4286 19.0669 21.4286 18.2144V15.2144ZM7.50001 6.85725C7.32952 6.85725 7.166 6.92498 7.04544 7.04554C6.92489 7.1661 6.85716 7.32961 6.85716 7.5001C6.85716 7.6706 6.92489 7.83411 7.04544 7.95467C7.166 8.07523 7.32952 8.14296 7.50001 8.14296H16.5C16.6705 8.14296 16.834 8.07523 16.9546 7.95467C17.0751 7.83411 17.1429 7.6706 17.1429 7.5001C17.1429 7.32961 17.0751 7.1661 16.9546 7.04554C16.834 6.92498 16.6705 6.85725 16.5 6.85725H7.50001ZM6.85716 11.7858C6.85716 11.6153 6.92489 11.4518 7.04544 11.3313C7.166 11.2107 7.32952 11.143 7.50001 11.143H16.5C16.6705 11.143 16.834 11.2107 16.9546 11.3313C17.0751 11.4518 17.1429 11.6153 17.1429 11.7858C17.1429 11.9563 17.0751 12.1198 16.9546 12.2404C16.834 12.3609 16.6705 12.4287 16.5 12.4287H7.50001C7.32952 12.4287 7.166 12.3609 7.04544 12.2404C6.92489 12.1198 6.85716 11.9563 6.85716 11.7858ZM7.50001 15.4287C7.32952 15.4287 7.166 15.4964 7.04544 15.617C6.92489 15.7375 6.85716 15.901 6.85716 16.0715C6.85716 16.242 6.92489 16.4055 7.04544 16.5261C7.166 16.6467 7.32952 16.7144 7.50001 16.7144H12.2143C12.3848 16.7144 12.5483 16.6467 12.6689 16.5261C12.7894 16.4055 12.8572 16.242 12.8572 16.0715C12.8572 15.901 12.7894 15.7375 12.6689 15.617C12.5483 15.4964 12.3848 15.4287 12.2143 15.4287H7.50001Z" fill="#141414"/>
</svg>
