<svg width="201" height="141" viewBox="0 0 201 141" fill="none" xmlns="http://www.w3.org/2000/svg">
<g filter="url(#filter0_d_87_283)">
<path d="M129.192 17.8778C126.582 12.8525 122.757 8.58343 118.075 5.47192C113.393 2.36041 108.008 0.508667 102.428 0.0907673C96.8468 -0.327132 91.2529 0.702541 86.1719 3.08299C81.0909 5.46344 76.6896 9.11646 73.3819 13.6986C70.0742 18.2808 67.9686 23.6416 67.2632 29.2771C66.5578 34.9126 67.2757 40.6376 69.3494 45.914C71.4231 51.1903 74.7845 55.8447 79.1176 59.4395C83.4506 63.0343 88.613 65.4515 94.1195 66.4638L95.663 57.8115C91.6019 57.0649 87.7945 55.2822 84.5988 52.6309C81.4031 49.9797 78.924 46.547 77.3946 42.6556C75.8652 38.7641 75.3357 34.5418 75.856 30.3855C76.3762 26.2293 77.9291 22.2756 80.3686 18.8961C82.8081 15.5167 86.0541 12.8225 89.8015 11.0668C93.5488 9.31122 97.6744 8.55181 101.79 8.86002C105.906 9.16823 109.878 10.5339 113.331 12.8287C116.784 15.1235 119.605 18.272 121.53 21.9783L129.192 17.8778Z" fill="#981E25"/>
</g>
<g filter="url(#filter1_d_87_283)">
<path d="M70.8079 81.1222C73.4175 86.1475 77.2432 90.4166 81.9251 93.5281C86.6071 96.6396 91.9916 98.4913 97.5724 98.9092C103.153 99.3271 108.747 98.2975 113.828 95.917C118.909 93.5366 123.31 89.8835 126.618 85.3014C129.926 80.7192 132.031 75.3584 132.737 69.7229C133.442 64.0874 132.724 58.3624 130.651 53.086C128.577 47.8097 125.216 43.1553 120.882 39.5605C116.549 35.9657 111.387 33.5485 105.881 32.5362L104.337 41.1885C108.398 41.9351 112.205 43.7178 115.401 46.3691C118.597 49.0203 121.076 52.453 122.605 56.3444C124.135 60.2359 124.664 64.4582 124.144 68.6145C123.624 72.7707 122.071 76.7244 119.631 80.1039C117.192 83.4833 113.946 86.1775 110.199 87.9332C106.451 89.6888 102.326 90.4482 98.2096 90.14C94.0936 89.8318 90.1224 88.4661 86.6694 86.1713C83.2164 83.8765 80.3949 80.728 78.4703 77.0217L70.8079 81.1222Z" fill="#FFB53B"/>
</g>
<g filter="url(#filter2_d_87_283)">
<path d="M53.7741 118.844C53.7741 119.883 53.5045 120.816 52.9655 121.645C52.4342 122.473 51.653 123.121 50.6217 123.59C49.5905 124.059 48.3678 124.293 46.9538 124.293C45.2584 124.293 43.86 123.973 42.7584 123.332C41.9772 122.871 41.3405 122.258 40.8483 121.492C40.3639 120.719 40.1217 119.969 40.1217 119.242C40.1217 118.82 40.2663 118.461 40.5553 118.164C40.8522 117.859 41.2272 117.707 41.6803 117.707C42.0475 117.707 42.3561 117.824 42.6061 118.059C42.8639 118.293 43.0827 118.641 43.2623 119.102C43.4811 119.648 43.7155 120.105 43.9655 120.473C44.2233 120.84 44.5827 121.145 45.0436 121.387C45.5045 121.621 46.11 121.738 46.86 121.738C47.8913 121.738 48.7272 121.5 49.3678 121.023C50.0163 120.539 50.3405 119.938 50.3405 119.219C50.3405 118.648 50.1647 118.188 49.8131 117.836C49.4694 117.477 49.0202 117.203 48.4655 117.016C47.9186 116.828 47.1842 116.629 46.2623 116.418C45.028 116.129 43.9928 115.793 43.1569 115.41C42.3288 115.02 41.6686 114.492 41.1764 113.828C40.692 113.156 40.4498 112.324 40.4498 111.332C40.4498 110.387 40.7077 109.547 41.2233 108.812C41.7389 108.078 42.485 107.516 43.4616 107.125C44.4381 106.727 45.5866 106.527 46.9069 106.527C47.9616 106.527 48.8717 106.66 49.6373 106.926C50.4108 107.184 51.0514 107.531 51.5592 107.969C52.067 108.398 52.4381 108.852 52.6725 109.328C52.9069 109.805 53.0241 110.27 53.0241 110.723C53.0241 111.137 52.8756 111.512 52.5788 111.848C52.2897 112.176 51.9264 112.34 51.4889 112.34C51.0905 112.34 50.7858 112.242 50.5748 112.047C50.3717 111.844 50.1491 111.516 49.9069 111.062C49.5944 110.414 49.2194 109.91 48.7819 109.551C48.3444 109.184 47.6413 109 46.6725 109C45.7741 109 45.0475 109.199 44.4928 109.598C43.9459 109.988 43.6725 110.461 43.6725 111.016C43.6725 111.359 43.7663 111.656 43.9538 111.906C44.1413 112.156 44.3991 112.371 44.7272 112.551C45.0553 112.73 45.3873 112.871 45.7233 112.973C46.0592 113.074 46.6139 113.223 47.3873 113.418C48.3561 113.645 49.2311 113.895 50.0123 114.168C50.8014 114.441 51.4694 114.773 52.0163 115.164C52.5709 115.555 53.0006 116.051 53.3053 116.652C53.6178 117.246 53.7741 117.977 53.7741 118.844ZM58.7934 108.473V113.219C59.1997 112.75 59.5942 112.379 59.977 112.105C60.3677 111.832 60.7973 111.629 61.2661 111.496C61.7348 111.355 62.2388 111.285 62.7778 111.285C63.5903 111.285 64.3091 111.457 64.9341 111.801C65.5669 112.145 66.063 112.645 66.4223 113.301C66.6489 113.684 66.8013 114.113 66.8794 114.59C66.9575 115.059 66.9966 115.602 66.9966 116.219V122.348C66.9966 122.988 66.8481 123.473 66.5513 123.801C66.2622 124.129 65.8755 124.293 65.3911 124.293C64.3364 124.293 63.8091 123.645 63.8091 122.348V116.945C63.8091 115.922 63.6567 115.137 63.352 114.59C63.0473 114.035 62.4692 113.758 61.6177 113.758C61.0473 113.758 60.5317 113.922 60.0708 114.25C59.6177 114.57 59.2778 115.012 59.0513 115.574C58.8794 116.051 58.7934 116.898 58.7934 118.117V122.348C58.7934 122.98 58.6489 123.465 58.3598 123.801C58.0786 124.129 57.6841 124.293 57.1763 124.293C56.1216 124.293 55.5942 123.645 55.5942 122.348V108.473C55.5942 107.824 55.7309 107.34 56.0044 107.02C56.2856 106.691 56.6763 106.527 57.1763 106.527C57.6841 106.527 58.0786 106.691 58.3598 107.02C58.6489 107.348 58.7934 107.832 58.7934 108.473ZM77.4183 122.488C76.6448 123.09 75.8948 123.543 75.1683 123.848C74.4495 124.145 73.6409 124.293 72.7425 124.293C71.9222 124.293 71.1995 124.133 70.5745 123.812C69.9573 123.484 69.4808 123.043 69.1448 122.488C68.8089 121.934 68.6409 121.332 68.6409 120.684C68.6409 119.809 68.9183 119.062 69.473 118.445C70.0277 117.828 70.7894 117.414 71.7581 117.203C71.9613 117.156 72.4652 117.051 73.2698 116.887C74.0745 116.723 74.762 116.574 75.3323 116.441C75.9105 116.301 76.5355 116.133 77.2073 115.938C77.1683 115.094 76.9964 114.477 76.6917 114.086C76.3948 113.688 75.7738 113.488 74.8284 113.488C74.0159 113.488 73.4027 113.602 72.9886 113.828C72.5823 114.055 72.2308 114.395 71.9339 114.848C71.6448 115.301 71.4378 115.602 71.3128 115.75C71.1956 115.891 70.9378 115.961 70.5394 115.961C70.18 115.961 69.8675 115.848 69.6019 115.621C69.3441 115.387 69.2152 115.09 69.2152 114.73C69.2152 114.168 69.4144 113.621 69.8128 113.09C70.2113 112.559 70.8323 112.121 71.6761 111.777C72.5198 111.434 73.5706 111.262 74.8284 111.262C76.2347 111.262 77.3402 111.43 78.1448 111.766C78.9495 112.094 79.5159 112.617 79.8441 113.336C80.18 114.055 80.348 115.008 80.348 116.195C80.348 116.945 80.3441 117.582 80.3363 118.105C80.3363 118.629 80.3323 119.211 80.3245 119.852C80.3245 120.453 80.4222 121.082 80.6175 121.738C80.8206 122.387 80.9222 122.805 80.9222 122.992C80.9222 123.32 80.7659 123.621 80.4534 123.895C80.1488 124.16 79.8011 124.293 79.4105 124.293C79.0823 124.293 78.7581 124.141 78.4378 123.836C78.1175 123.523 77.7777 123.074 77.4183 122.488ZM77.2073 117.859C76.7386 118.031 76.055 118.215 75.1566 118.41C74.2659 118.598 73.6488 118.738 73.305 118.832C72.9613 118.918 72.6331 119.094 72.3206 119.359C72.0081 119.617 71.8519 119.98 71.8519 120.449C71.8519 120.934 72.0355 121.348 72.4027 121.691C72.7698 122.027 73.2503 122.195 73.8441 122.195C74.4769 122.195 75.0589 122.059 75.5902 121.785C76.1292 121.504 76.5238 121.145 76.7738 120.707C77.0628 120.223 77.2073 119.426 77.2073 118.316V117.859ZM85.9416 119.676V122.348C85.9416 122.996 85.7892 123.484 85.4845 123.812C85.1798 124.133 84.7931 124.293 84.3244 124.293C83.8634 124.293 83.4845 124.129 83.1877 123.801C82.8908 123.473 82.7423 122.988 82.7423 122.348V113.441C82.7423 112.004 83.2619 111.285 84.3009 111.285C84.8322 111.285 85.215 111.453 85.4494 111.789C85.6837 112.125 85.8127 112.621 85.8361 113.277C86.2189 112.621 86.6095 112.125 87.008 111.789C87.4142 111.453 87.9533 111.285 88.6252 111.285C89.297 111.285 89.9494 111.453 90.5822 111.789C91.215 112.125 91.5314 112.57 91.5314 113.125C91.5314 113.516 91.3947 113.84 91.1212 114.098C90.8556 114.348 90.5666 114.473 90.2541 114.473C90.1369 114.473 89.8517 114.402 89.3986 114.262C88.9533 114.113 88.5587 114.039 88.215 114.039C87.7462 114.039 87.3634 114.164 87.0666 114.414C86.7697 114.656 86.5392 115.02 86.3752 115.504C86.2111 115.988 86.0978 116.566 86.0353 117.238C85.9728 117.902 85.9416 118.715 85.9416 119.676ZM100.77 118.574H94.5117C94.5195 119.301 94.6641 119.941 94.9453 120.496C95.2344 121.051 95.6133 121.469 96.082 121.75C96.5586 122.031 97.082 122.172 97.6523 122.172C98.0352 122.172 98.3828 122.129 98.6953 122.043C99.0156 121.949 99.3242 121.809 99.6211 121.621C99.918 121.426 100.191 121.219 100.441 121C100.691 120.781 101.016 120.484 101.414 120.109C101.578 119.969 101.812 119.898 102.117 119.898C102.445 119.898 102.711 119.988 102.914 120.168C103.117 120.348 103.219 120.602 103.219 120.93C103.219 121.219 103.105 121.559 102.879 121.949C102.652 122.332 102.309 122.703 101.848 123.062C101.395 123.414 100.82 123.707 100.125 123.941C99.4375 124.176 98.6445 124.293 97.7461 124.293C95.6914 124.293 94.0938 123.707 92.9531 122.535C91.8125 121.363 91.2422 119.773 91.2422 117.766C91.2422 116.82 91.3828 115.945 91.6641 115.141C91.9453 114.328 92.3555 113.633 92.8945 113.055C93.4336 112.477 94.0977 112.035 94.8867 111.73C95.6758 111.418 96.5508 111.262 97.5117 111.262C98.7617 111.262 99.832 111.527 100.723 112.059C101.621 112.582 102.293 113.262 102.738 114.098C103.184 114.934 103.406 115.785 103.406 116.652C103.406 117.457 103.176 117.98 102.715 118.223C102.254 118.457 101.605 118.574 100.77 118.574ZM94.5117 116.758H100.312C100.234 115.664 99.9375 114.848 99.4219 114.309C98.9141 113.762 98.2422 113.488 97.4062 113.488C96.6094 113.488 95.9531 113.766 95.4375 114.32C94.9297 114.867 94.6211 115.68 94.5117 116.758ZM117.66 121.293L114.883 110.992L112.07 121.293C111.851 122.074 111.676 122.637 111.543 122.98C111.418 123.316 111.195 123.621 110.875 123.895C110.555 124.16 110.129 124.293 109.598 124.293C109.168 124.293 108.812 124.211 108.531 124.047C108.258 123.891 108.035 123.668 107.863 123.379C107.691 123.082 107.551 122.734 107.441 122.336C107.332 121.93 107.234 121.555 107.148 121.211L104.289 109.645C104.117 108.973 104.031 108.461 104.031 108.109C104.031 107.664 104.187 107.289 104.5 106.984C104.812 106.68 105.199 106.527 105.66 106.527C106.293 106.527 106.719 106.73 106.937 107.137C107.156 107.543 107.348 108.133 107.512 108.906L109.762 118.938L112.281 109.551C112.469 108.832 112.637 108.285 112.785 107.91C112.933 107.535 113.176 107.211 113.512 106.938C113.848 106.664 114.305 106.527 114.883 106.527C115.469 106.527 115.922 106.672 116.242 106.961C116.57 107.242 116.797 107.551 116.922 107.887C117.047 108.223 117.215 108.777 117.426 109.551L119.969 118.938L122.219 108.906C122.328 108.383 122.43 107.973 122.523 107.676C122.625 107.379 122.793 107.113 123.027 106.879C123.269 106.645 123.617 106.527 124.07 106.527C124.523 106.527 124.906 106.68 125.219 106.984C125.539 107.281 125.699 107.656 125.699 108.109C125.699 108.43 125.613 108.941 125.441 109.645L122.582 121.211C122.387 121.992 122.223 122.566 122.09 122.934C121.965 123.293 121.746 123.609 121.433 123.883C121.129 124.156 120.695 124.293 120.133 124.293C119.601 124.293 119.176 124.16 118.855 123.895C118.535 123.629 118.312 123.332 118.187 123.004C118.062 122.668 117.887 122.098 117.66 121.293ZM129.804 119.676V122.348C129.804 122.996 129.652 123.484 129.347 123.812C129.043 124.133 128.656 124.293 128.187 124.293C127.726 124.293 127.347 124.129 127.05 123.801C126.754 123.473 126.605 122.988 126.605 122.348V113.441C126.605 112.004 127.125 111.285 128.164 111.285C128.695 111.285 129.078 111.453 129.312 111.789C129.547 112.125 129.675 112.621 129.699 113.277C130.082 112.621 130.472 112.125 130.871 111.789C131.277 111.453 131.816 111.285 132.488 111.285C133.16 111.285 133.812 111.453 134.445 111.789C135.078 112.125 135.394 112.57 135.394 113.125C135.394 113.516 135.257 113.84 134.984 114.098C134.718 114.348 134.429 114.473 134.117 114.473C134 114.473 133.715 114.402 133.261 114.262C132.816 114.113 132.422 114.039 132.078 114.039C131.609 114.039 131.226 114.164 130.929 114.414C130.632 114.656 130.402 115.02 130.238 115.504C130.074 115.988 129.961 116.566 129.898 117.238C129.836 117.902 129.804 118.715 129.804 119.676ZM143.789 122.488C143.015 123.09 142.265 123.543 141.539 123.848C140.82 124.145 140.011 124.293 139.113 124.293C138.293 124.293 137.57 124.133 136.945 123.812C136.328 123.484 135.851 123.043 135.515 122.488C135.179 121.934 135.011 121.332 135.011 120.684C135.011 119.809 135.289 119.062 135.843 118.445C136.398 117.828 137.16 117.414 138.128 117.203C138.332 117.156 138.835 117.051 139.64 116.887C140.445 116.723 141.132 116.574 141.703 116.441C142.281 116.301 142.906 116.133 143.578 115.938C143.539 115.094 143.367 114.477 143.062 114.086C142.765 113.688 142.144 113.488 141.199 113.488C140.386 113.488 139.773 113.602 139.359 113.828C138.953 114.055 138.601 114.395 138.304 114.848C138.015 115.301 137.808 115.602 137.683 115.75C137.566 115.891 137.308 115.961 136.91 115.961C136.55 115.961 136.238 115.848 135.972 115.621C135.714 115.387 135.585 115.09 135.585 114.73C135.585 114.168 135.785 113.621 136.183 113.09C136.582 112.559 137.203 112.121 138.046 111.777C138.89 111.434 139.941 111.262 141.199 111.262C142.605 111.262 143.71 111.43 144.515 111.766C145.32 112.094 145.886 112.617 146.214 113.336C146.55 114.055 146.718 115.008 146.718 116.195C146.718 116.945 146.714 117.582 146.707 118.105C146.707 118.629 146.703 119.211 146.695 119.852C146.695 120.453 146.793 121.082 146.988 121.738C147.191 122.387 147.293 122.805 147.293 122.992C147.293 123.32 147.136 123.621 146.824 123.895C146.519 124.16 146.171 124.293 145.781 124.293C145.453 124.293 145.128 124.141 144.808 123.836C144.488 123.523 144.148 123.074 143.789 122.488ZM143.578 117.859C143.109 118.031 142.425 118.215 141.527 118.41C140.636 118.598 140.019 118.738 139.675 118.832C139.332 118.918 139.003 119.094 138.691 119.359C138.378 119.617 138.222 119.98 138.222 120.449C138.222 120.934 138.406 121.348 138.773 121.691C139.14 122.027 139.621 122.195 140.214 122.195C140.847 122.195 141.429 122.059 141.96 121.785C142.5 121.504 142.894 121.145 143.144 120.707C143.433 120.223 143.578 119.426 143.578 118.316V117.859ZM151.761 113.078V113.465C152.363 112.723 152.988 112.18 153.636 111.836C154.285 111.484 155.019 111.309 155.839 111.309C156.824 111.309 157.73 111.562 158.558 112.07C159.386 112.578 160.038 113.32 160.515 114.297C160.999 115.273 161.242 116.43 161.242 117.766C161.242 118.75 161.101 119.656 160.82 120.484C160.546 121.305 160.167 121.996 159.683 122.559C159.199 123.113 158.624 123.543 157.96 123.848C157.304 124.145 156.597 124.293 155.839 124.293C154.925 124.293 154.156 124.109 153.531 123.742C152.913 123.375 152.324 122.836 151.761 122.125V126.93C151.761 128.336 151.249 129.039 150.226 129.039C149.624 129.039 149.226 128.855 149.031 128.488C148.835 128.129 148.738 127.602 148.738 126.906V113.102C148.738 112.492 148.87 112.039 149.136 111.742C149.402 111.438 149.765 111.285 150.226 111.285C150.679 111.285 151.046 111.441 151.327 111.754C151.617 112.059 151.761 112.5 151.761 113.078ZM158.031 117.73C158.031 116.887 157.902 116.164 157.644 115.562C157.386 114.953 157.027 114.488 156.566 114.168C156.113 113.84 155.609 113.676 155.054 113.676C154.171 113.676 153.425 114.023 152.816 114.719C152.214 115.414 151.913 116.438 151.913 117.789C151.913 119.062 152.214 120.055 152.816 120.766C153.417 121.469 154.163 121.82 155.054 121.82C155.585 121.82 156.077 121.668 156.531 121.363C156.984 121.051 157.347 120.586 157.62 119.969C157.894 119.352 158.031 118.605 158.031 117.73Z" fill="black"/>
</g>
<defs>
<filter id="filter0_d_87_283" x="63" y="0" width="70.1921" height="74.4639" filterUnits="userSpaceOnUse" color-interpolation-filters="sRGB">
<feFlood flood-opacity="0" result="BackgroundImageFix"/>
<feColorMatrix in="SourceAlpha" type="matrix" values="0 0 0 0 0 0 0 0 0 0 0 0 0 0 0 0 0 0 127 0" result="hardAlpha"/>
<feOffset dy="4"/>
<feGaussianBlur stdDeviation="2"/>
<feComposite in2="hardAlpha" operator="out"/>
<feColorMatrix type="matrix" values="0 0 0 0 0 0 0 0 0 0 0 0 0 0 0 0 0 0 0.25 0"/>
<feBlend mode="normal" in2="BackgroundImageFix" result="effect1_dropShadow_87_283"/>
<feBlend mode="normal" in="SourceGraphic" in2="effect1_dropShadow_87_283" result="shape"/>
</filter>
<filter id="filter1_d_87_283" x="66.8079" y="32.5361" width="70.1921" height="74.4639" filterUnits="userSpaceOnUse" color-interpolation-filters="sRGB">
<feFlood flood-opacity="0" result="BackgroundImageFix"/>
<feColorMatrix in="SourceAlpha" type="matrix" values="0 0 0 0 0 0 0 0 0 0 0 0 0 0 0 0 0 0 127 0" result="hardAlpha"/>
<feOffset dy="4"/>
<feGaussianBlur stdDeviation="2"/>
<feComposite in2="hardAlpha" operator="out"/>
<feColorMatrix type="matrix" values="0 0 0 0 0 0 0 0 0 0 0 0 0 0 0 0 0 0 0.25 0"/>
<feBlend mode="normal" in2="BackgroundImageFix" result="effect1_dropShadow_87_283"/>
<feBlend mode="normal" in="SourceGraphic" in2="effect1_dropShadow_87_283" result="shape"/>
</filter>
<filter id="filter2_d_87_283" x="35.1218" y="103.527" width="135.12" height="36.5117" filterUnits="userSpaceOnUse" color-interpolation-filters="sRGB">
<feFlood flood-opacity="0" result="BackgroundImageFix"/>
<feColorMatrix in="SourceAlpha" type="matrix" values="0 0 0 0 0 0 0 0 0 0 0 0 0 0 0 0 0 0 127 0" result="hardAlpha"/>
<feOffset dx="2" dy="4"/>
<feGaussianBlur stdDeviation="3.5"/>
<feComposite in2="hardAlpha" operator="out"/>
<feColorMatrix type="matrix" values="0 0 0 0 0 0 0 0 0 0 0 0 0 0 0 0 0 0 0.25 0"/>
<feBlend mode="normal" in2="BackgroundImageFix" result="effect1_dropShadow_87_283"/>
<feBlend mode="normal" in="SourceGraphic" in2="effect1_dropShadow_87_283" result="shape"/>
</filter>
</defs>
</svg>
