<svg width="65" height="41" viewBox="0 0 65 41" fill="none" xmlns="http://www.w3.org/2000/svg">
<path d="M41.7786 5.68208C40.9347 4.0849 39.6976 2.72807 38.1835 1.73914C36.6694 0.750209 34.9282 0.161669 33.1234 0.0288485C31.3187 -0.103972 29.5097 0.223288 27.8666 0.979864C26.2235 1.73644 24.8002 2.89748 23.7305 4.35383C22.6609 5.81018 21.98 7.51401 21.7519 9.30513C21.5238 11.0963 21.7559 12.9158 22.4265 14.5928C23.0971 16.2698 24.1841 17.7491 25.5854 18.8916C26.9866 20.0342 28.656 20.8024 30.4367 21.1242L30.9359 18.3742C29.6226 18.1369 28.3913 17.5703 27.3579 16.7277C26.3245 15.885 25.5228 14.794 25.0282 13.5572C24.5336 12.3204 24.3624 10.9784 24.5306 9.65742C24.6989 8.33643 25.201 7.07983 25.9899 6.00574C26.7788 4.93165 27.8285 4.07536 29.0404 3.51737C30.2522 2.95938 31.5863 2.71802 32.9174 2.81598C34.2484 2.91393 35.5326 3.34799 36.6493 4.07735C37.7659 4.8067 38.6783 5.8074 39.3007 6.98535L41.7786 5.68208Z" fill="#981E25"/>
<path d="M22.8981 25.7833C23.7421 27.3804 24.9792 28.7373 26.4933 29.7262C28.0073 30.7151 29.7486 31.3037 31.5533 31.4365C33.3581 31.5693 35.167 31.242 36.8101 30.4855C38.4533 29.7289 39.8766 28.5679 40.9462 27.1115C42.0159 25.6551 42.6968 23.9513 42.9249 22.1602C43.153 20.3691 42.9208 18.5495 42.2503 16.8725C41.5797 15.1955 40.4926 13.7162 39.0914 12.5737C37.6902 11.4312 36.0207 10.6629 34.24 10.3412L33.7409 13.0911C35.0542 13.3284 36.2854 13.895 37.3189 14.7377C38.3523 15.5803 39.154 16.6713 39.6486 17.9081C40.1432 19.1449 40.3144 20.4869 40.1461 21.8079C39.9779 23.1289 39.4757 24.3855 38.6868 25.4596C37.8979 26.5337 36.8482 27.39 35.6364 27.948C34.4246 28.506 33.0904 28.7473 31.7594 28.6494C30.4283 28.5514 29.1441 28.1173 28.0275 27.388C26.9108 26.6586 25.9984 25.6579 25.376 24.48L22.8981 25.7833Z" fill="#FFB53B"/>
</svg>
