<svg width="196" height="39" viewBox="0 0 196 39" fill="none" xmlns="http://www.w3.org/2000/svg">
<path d="M22.8828 21.4062C22.8828 23.138 22.4336 24.694 21.5352 26.0742C20.6497 27.4544 19.3477 28.5352 17.6289 29.3164C15.9102 30.0977 13.8724 30.4883 11.5156 30.4883C8.6901 30.4883 6.35938 29.9544 4.52344 28.8867C3.22135 28.1185 2.16016 27.0964 1.33984 25.8203C0.532552 24.5312 0.128906 23.2812 0.128906 22.0703C0.128906 21.3672 0.369792 20.7682 0.851562 20.2734C1.34635 19.7656 1.97135 19.5117 2.72656 19.5117C3.33854 19.5117 3.85286 19.707 4.26953 20.0977C4.69922 20.4883 5.0638 21.0677 5.36328 21.8359C5.72786 22.7474 6.11849 23.5091 6.53516 24.1211C6.96484 24.7331 7.5638 25.2409 8.33203 25.6445C9.10026 26.0352 10.1094 26.2305 11.3594 26.2305C13.0781 26.2305 14.4714 25.8333 15.5391 25.0391C16.6198 24.2318 17.1602 23.2292 17.1602 22.0312C17.1602 21.0807 16.8672 20.3125 16.2812 19.7266C15.7083 19.1276 14.9596 18.6719 14.0352 18.3594C13.1237 18.0469 11.8997 17.7148 10.3633 17.3633C8.30599 16.8815 6.58073 16.3216 5.1875 15.6836C3.80729 15.0326 2.70703 14.1536 1.88672 13.0469C1.07943 11.9271 0.675781 10.5404 0.675781 8.88672C0.675781 7.3112 1.10547 5.91146 1.96484 4.6875C2.82422 3.46354 4.06771 2.52604 5.69531 1.875C7.32292 1.21094 9.23698 0.878906 11.4375 0.878906C13.1953 0.878906 14.7122 1.10026 15.9883 1.54297C17.2773 1.97266 18.3451 2.55208 19.1914 3.28125C20.0378 3.9974 20.6562 4.7526 21.0469 5.54688C21.4375 6.34115 21.6328 7.11589 21.6328 7.87109C21.6328 8.5612 21.3854 9.1862 20.8906 9.74609C20.4089 10.293 19.8034 10.5664 19.0742 10.5664C18.4102 10.5664 17.9023 10.4036 17.5508 10.0781C17.2122 9.73958 16.8411 9.19271 16.4375 8.4375C15.9167 7.35677 15.2917 6.51693 14.5625 5.91797C13.8333 5.30599 12.6615 5 11.0469 5C9.54948 5 8.33854 5.33203 7.41406 5.99609C6.5026 6.64714 6.04688 7.4349 6.04688 8.35938C6.04688 8.93229 6.20312 9.42708 6.51562 9.84375C6.82812 10.2604 7.25781 10.6185 7.80469 10.918C8.35156 11.2174 8.90495 11.4518 9.46484 11.6211C10.0247 11.7904 10.9492 12.0378 12.2383 12.3633C13.8529 12.7409 15.3112 13.1576 16.6133 13.6133C17.9284 14.069 19.0417 14.6224 19.9531 15.2734C20.8776 15.9245 21.5938 16.7513 22.1016 17.7539C22.6224 18.7435 22.8828 19.9609 22.8828 21.4062ZM30.4484 4.12109V12.0312C31.1255 11.25 31.7831 10.6315 32.4211 10.1758C33.0721 9.72005 33.7883 9.38151 34.5695 9.16016C35.3508 8.92578 36.1906 8.80859 37.0891 8.80859C38.4432 8.80859 39.6411 9.09505 40.6828 9.66797C41.7375 10.2409 42.5643 11.0742 43.1633 12.168C43.5409 12.806 43.7948 13.5221 43.925 14.3164C44.0552 15.0977 44.1203 16.0026 44.1203 17.0312V27.2461C44.1203 28.3138 43.8729 29.1211 43.3781 29.668C42.8964 30.2148 42.2518 30.4883 41.4445 30.4883C39.6867 30.4883 38.8078 29.4076 38.8078 27.2461V18.2422C38.8078 16.5365 38.5539 15.2279 38.0461 14.3164C37.5383 13.3919 36.5747 12.9297 35.1555 12.9297C34.2049 12.9297 33.3456 13.2031 32.5773 13.75C31.8221 14.2839 31.2557 15.0195 30.8781 15.957C30.5917 16.7513 30.4484 18.1641 30.4484 20.1953V27.2461C30.4484 28.3008 30.2076 29.1081 29.7258 29.668C29.257 30.2148 28.5995 30.4883 27.7531 30.4883C25.9953 30.4883 25.1164 29.4076 25.1164 27.2461V4.12109C25.1164 3.04036 25.3443 2.23307 25.8 1.69922C26.2687 1.15234 26.9198 0.878906 27.7531 0.878906C28.5995 0.878906 29.257 1.15234 29.7258 1.69922C30.2076 2.24609 30.4484 3.05339 30.4484 4.12109ZM60.6898 27.4805C59.4008 28.4831 58.1508 29.2383 56.9398 29.7461C55.7419 30.2409 54.3943 30.4883 52.8969 30.4883C51.5297 30.4883 50.3253 30.2214 49.2836 29.6875C48.2549 29.1406 47.4607 28.4049 46.9008 27.4805C46.3409 26.556 46.0609 25.5534 46.0609 24.4727C46.0609 23.0143 46.5232 21.7708 47.4477 20.7422C48.3721 19.7135 49.6417 19.0234 51.2562 18.6719C51.5948 18.5938 52.4346 18.418 53.7758 18.1445C55.1169 17.8711 56.2628 17.6237 57.2133 17.4023C58.1768 17.168 59.2185 16.888 60.3383 16.5625C60.2732 15.1562 59.9867 14.1276 59.4789 13.4766C58.9841 12.8125 57.949 12.4805 56.3734 12.4805C55.0193 12.4805 53.9971 12.6693 53.307 13.0469C52.6299 13.4245 52.044 13.9909 51.5492 14.7461C51.0674 15.5013 50.7224 16.0026 50.5141 16.25C50.3187 16.4844 49.8891 16.6016 49.225 16.6016C48.626 16.6016 48.1052 16.4128 47.6625 16.0352C47.2328 15.6445 47.018 15.1497 47.018 14.5508C47.018 13.6133 47.35 12.7018 48.0141 11.8164C48.6781 10.931 49.7133 10.2018 51.1195 9.62891C52.5258 9.05599 54.2771 8.76953 56.3734 8.76953C58.7172 8.76953 60.5596 9.04948 61.9008 9.60938C63.2419 10.1562 64.1859 11.0286 64.7328 12.2266C65.2927 13.4245 65.5727 15.013 65.5727 16.9922C65.5727 18.2422 65.5661 19.3034 65.5531 20.1758C65.5531 21.0482 65.5466 22.0182 65.5336 23.0859C65.5336 24.0885 65.6964 25.1367 66.0219 26.2305C66.3604 27.3112 66.5297 28.0078 66.5297 28.3203C66.5297 28.8672 66.2693 29.3685 65.7484 29.8242C65.2406 30.2669 64.6612 30.4883 64.0102 30.4883C63.4633 30.4883 62.9229 30.2344 62.3891 29.7266C61.8552 29.2057 61.2888 28.457 60.6898 27.4805ZM60.3383 19.7656C59.557 20.0521 58.4177 20.3581 56.9203 20.6836C55.4359 20.9961 54.4073 21.2305 53.8344 21.3867C53.2615 21.5299 52.7146 21.8229 52.1937 22.2656C51.6729 22.6953 51.4125 23.3008 51.4125 24.082C51.4125 24.8893 51.7185 25.5794 52.3305 26.1523C52.9424 26.7122 53.7432 26.9922 54.7328 26.9922C55.7875 26.9922 56.7576 26.7643 57.643 26.3086C58.5414 25.8398 59.199 25.2409 59.6156 24.5117C60.0974 23.7044 60.3383 22.3763 60.3383 20.5273V19.7656ZM74.0953 22.793V27.2461C74.0953 28.3268 73.8414 29.1406 73.3336 29.6875C72.8258 30.2214 72.1813 30.4883 71.4 30.4883C70.6318 30.4883 70.0003 30.2148 69.5055 29.668C69.0107 29.1211 68.7633 28.3138 68.7633 27.2461V12.4023C68.7633 10.0065 69.6292 8.80859 71.3609 8.80859C72.2464 8.80859 72.8844 9.08854 73.275 9.64844C73.6656 10.2083 73.8805 11.0352 73.9195 12.1289C74.5576 11.0352 75.2086 10.2083 75.8727 9.64844C76.5497 9.08854 77.4482 8.80859 78.568 8.80859C79.6878 8.80859 80.775 9.08854 81.8297 9.64844C82.8844 10.2083 83.4117 10.9505 83.4117 11.875C83.4117 12.526 83.1839 13.0664 82.7281 13.4961C82.2854 13.9128 81.8036 14.1211 81.2828 14.1211C81.0875 14.1211 80.6122 14.0039 79.857 13.7695C79.1148 13.5221 78.4573 13.3984 77.8844 13.3984C77.1031 13.3984 76.4651 13.6068 75.9703 14.0234C75.4755 14.4271 75.0914 15.0326 74.818 15.8398C74.5445 16.6471 74.3557 17.6107 74.2516 18.7305C74.1474 19.8372 74.0953 21.1914 74.0953 22.793ZM98.0086 20.957H87.5789C87.5919 22.168 87.8328 23.2357 88.3016 24.1602C88.7833 25.0846 89.4148 25.7812 90.1961 26.25C90.9904 26.7188 91.8628 26.9531 92.8133 26.9531C93.4513 26.9531 94.0307 26.8815 94.5516 26.7383C95.0854 26.582 95.5997 26.3477 96.0945 26.0352C96.5893 25.7096 97.045 25.3646 97.4617 25C97.8784 24.6354 98.4187 24.1406 99.0828 23.5156C99.3562 23.2812 99.7469 23.1641 100.255 23.1641C100.802 23.1641 101.244 23.3138 101.583 23.6133C101.921 23.9128 102.091 24.3359 102.091 24.8828C102.091 25.3646 101.902 25.931 101.524 26.582C101.147 27.2201 100.574 27.8385 99.8055 28.4375C99.0503 29.0234 98.0932 29.5117 96.9344 29.9023C95.7885 30.293 94.4669 30.4883 92.9695 30.4883C89.545 30.4883 86.8823 29.5117 84.9812 27.5586C83.0802 25.6055 82.1297 22.9557 82.1297 19.6094C82.1297 18.0339 82.3641 16.5755 82.8328 15.2344C83.3016 13.8802 83.9852 12.7214 84.8836 11.7578C85.782 10.7943 86.8888 10.0586 88.2039 9.55078C89.519 9.02995 90.9773 8.76953 92.5789 8.76953C94.6622 8.76953 96.4461 9.21224 97.9305 10.0977C99.4279 10.9701 100.548 12.1029 101.29 13.4961C102.032 14.8893 102.403 16.3086 102.403 17.7539C102.403 19.0951 102.019 19.9674 101.251 20.3711C100.483 20.7617 99.4018 20.957 98.0086 20.957ZM87.5789 17.9297H97.2469C97.1167 16.1068 96.6219 14.7461 95.7625 13.8477C94.9161 12.9362 93.7964 12.4805 92.4031 12.4805C91.075 12.4805 89.9812 12.9427 89.1219 13.8672C88.2755 14.7786 87.7612 16.1328 87.5789 17.9297ZM125.359 25.4883L120.73 8.32031L116.043 25.4883C115.678 26.7904 115.385 27.7279 115.164 28.3008C114.956 28.8607 114.585 29.3685 114.051 29.8242C113.517 30.2669 112.807 30.4883 111.922 30.4883C111.206 30.4883 110.613 30.3516 110.145 30.0781C109.689 29.8177 109.318 29.4466 109.031 28.9648C108.745 28.4701 108.51 27.8906 108.328 27.2266C108.146 26.5495 107.983 25.9245 107.84 25.3516L103.074 6.07422C102.788 4.95443 102.645 4.10156 102.645 3.51562C102.645 2.77344 102.905 2.14844 103.426 1.64062C103.947 1.13281 104.591 0.878906 105.359 0.878906C106.414 0.878906 107.124 1.21745 107.488 1.89453C107.853 2.57161 108.172 3.55469 108.445 4.84375L112.195 21.5625L116.395 5.91797C116.707 4.72005 116.987 3.80859 117.234 3.18359C117.482 2.55859 117.885 2.01823 118.445 1.5625C119.005 1.10677 119.767 0.878906 120.73 0.878906C121.707 0.878906 122.462 1.11979 122.996 1.60156C123.543 2.07031 123.921 2.58464 124.129 3.14453C124.337 3.70443 124.617 4.62891 124.969 5.91797L129.207 21.5625L132.957 4.84375C133.139 3.97135 133.309 3.28776 133.465 2.79297C133.634 2.29818 133.914 1.85547 134.305 1.46484C134.708 1.07422 135.288 0.878906 136.043 0.878906C136.798 0.878906 137.436 1.13281 137.957 1.64062C138.491 2.13542 138.758 2.76042 138.758 3.51562C138.758 4.04948 138.615 4.90234 138.328 6.07422L133.562 25.3516C133.237 26.6536 132.964 27.6107 132.742 28.2227C132.534 28.8216 132.169 29.349 131.648 29.8047C131.141 30.2604 130.418 30.4883 129.48 30.4883C128.595 30.4883 127.885 30.2669 127.352 29.8242C126.818 29.3815 126.447 28.8867 126.238 28.3398C126.03 27.7799 125.737 26.8294 125.359 25.4883ZM144.8 22.793V27.2461C144.8 28.3268 144.546 29.1406 144.038 29.6875C143.53 30.2214 142.886 30.4883 142.105 30.4883C141.336 30.4883 140.705 30.2148 140.21 29.668C139.715 29.1211 139.468 28.3138 139.468 27.2461V12.4023C139.468 10.0065 140.334 8.80859 142.066 8.80859C142.951 8.80859 143.589 9.08854 143.98 9.64844C144.37 10.2083 144.585 11.0352 144.624 12.1289C145.262 11.0352 145.913 10.2083 146.577 9.64844C147.254 9.08854 148.153 8.80859 149.273 8.80859C150.392 8.80859 151.48 9.08854 152.534 9.64844C153.589 10.2083 154.116 10.9505 154.116 11.875C154.116 12.526 153.889 13.0664 153.433 13.4961C152.99 13.9128 152.508 14.1211 151.988 14.1211C151.792 14.1211 151.317 14.0039 150.562 13.7695C149.82 13.5221 149.162 13.3984 148.589 13.3984C147.808 13.3984 147.17 13.6068 146.675 14.0234C146.18 14.4271 145.796 15.0326 145.523 15.8398C145.249 16.6471 145.06 17.6107 144.956 18.7305C144.852 19.8372 144.8 21.1914 144.8 22.793ZM167.307 27.4805C166.018 28.4831 164.768 29.2383 163.557 29.7461C162.359 30.2409 161.011 30.4883 159.514 30.4883C158.147 30.4883 156.942 30.2214 155.901 29.6875C154.872 29.1406 154.078 28.4049 153.518 27.4805C152.958 26.556 152.678 25.5534 152.678 24.4727C152.678 23.0143 153.14 21.7708 154.065 20.7422C154.989 19.7135 156.259 19.0234 157.873 18.6719C158.212 18.5938 159.052 18.418 160.393 18.1445C161.734 17.8711 162.88 17.6237 163.83 17.4023C164.794 17.168 165.836 16.888 166.955 16.5625C166.89 15.1562 166.604 14.1276 166.096 13.4766C165.601 12.8125 164.566 12.4805 162.991 12.4805C161.636 12.4805 160.614 12.6693 159.924 13.0469C159.247 13.4245 158.661 13.9909 158.166 14.7461C157.685 15.5013 157.34 16.0026 157.131 16.25C156.936 16.4844 156.506 16.6016 155.842 16.6016C155.243 16.6016 154.722 16.4128 154.28 16.0352C153.85 15.6445 153.635 15.1497 153.635 14.5508C153.635 13.6133 153.967 12.7018 154.631 11.8164C155.295 10.931 156.33 10.2018 157.737 9.62891C159.143 9.05599 160.894 8.76953 162.991 8.76953C165.334 8.76953 167.177 9.04948 168.518 9.60938C169.859 10.1562 170.803 11.0286 171.35 12.2266C171.91 13.4245 172.19 15.013 172.19 16.9922C172.19 18.2422 172.183 19.3034 172.17 20.1758C172.17 21.0482 172.164 22.0182 172.151 23.0859C172.151 24.0885 172.314 25.1367 172.639 26.2305C172.978 27.3112 173.147 28.0078 173.147 28.3203C173.147 28.8672 172.886 29.3685 172.366 29.8242C171.858 30.2669 171.278 30.4883 170.627 30.4883C170.08 30.4883 169.54 30.2344 169.006 29.7266C168.472 29.2057 167.906 28.457 167.307 27.4805ZM166.955 19.7656C166.174 20.0521 165.035 20.3581 163.538 20.6836C162.053 20.9961 161.024 21.2305 160.452 21.3867C159.879 21.5299 159.332 21.8229 158.811 22.2656C158.29 22.6953 158.03 23.3008 158.03 24.082C158.03 24.8893 158.336 25.5794 158.948 26.1523C159.56 26.7122 160.36 26.9922 161.35 26.9922C162.405 26.9922 163.375 26.7643 164.26 26.3086C165.159 25.8398 165.816 25.2409 166.233 24.5117C166.715 23.7044 166.955 22.3763 166.955 20.5273V19.7656ZM179.795 11.7969V12.4414C180.797 11.2044 181.839 10.2995 182.92 9.72656C184 9.14062 185.224 8.84766 186.591 8.84766C188.232 8.84766 189.742 9.27083 191.123 10.1172C192.503 10.9635 193.59 12.2005 194.384 13.8281C195.192 15.4557 195.595 17.3828 195.595 19.6094C195.595 21.25 195.361 22.7604 194.892 24.1406C194.436 25.5078 193.805 26.6602 192.998 27.5977C192.19 28.5221 191.233 29.2383 190.127 29.7461C189.033 30.2409 187.854 30.4883 186.591 30.4883C185.068 30.4883 183.785 30.1823 182.744 29.5703C181.715 28.9583 180.732 28.0599 179.795 26.875V34.8828C179.795 37.2266 178.942 38.3984 177.236 38.3984C176.233 38.3984 175.569 38.0924 175.244 37.4805C174.918 36.8815 174.755 36.0026 174.755 34.8438V11.8359C174.755 10.8203 174.977 10.0651 175.42 9.57031C175.862 9.0625 176.468 8.80859 177.236 8.80859C177.991 8.80859 178.603 9.06901 179.072 9.58984C179.554 10.0977 179.795 10.8333 179.795 11.7969ZM190.244 19.5508C190.244 18.1445 190.029 16.9401 189.599 15.9375C189.17 14.9219 188.571 14.1471 187.802 13.6133C187.047 13.0664 186.207 12.793 185.283 12.793C183.811 12.793 182.568 13.3724 181.552 14.5312C180.55 15.6901 180.048 17.3958 180.048 19.6484C180.048 21.7708 180.55 23.4245 181.552 24.6094C182.555 25.7812 183.798 26.3672 185.283 26.3672C186.168 26.3672 186.989 26.1133 187.744 25.6055C188.499 25.0846 189.104 24.3099 189.56 23.2812C190.016 22.2526 190.244 21.0091 190.244 19.5508Z" fill="white"/>
</svg>
