<svg width="39" height="39" viewBox="0 0 39 39" fill="none" xmlns="http://www.w3.org/2000/svg">
<path fill-rule="evenodd" clip-rule="evenodd" d="M2.03125 3.25C2.03125 2.92677 2.15965 2.61677 2.38821 2.38821C2.61677 2.15965 2.92677 2.03125 3.25 2.03125H35.75C36.0732 2.03125 36.3832 2.15965 36.6118 2.38821C36.8404 2.61677 36.9688 2.92677 36.9688 3.25C36.9688 3.57323 36.8404 3.88323 36.6118 4.11179C36.3832 4.34035 36.0732 4.46875 35.75 4.46875H33.7188V20.1922C33.7188 22.1211 33.7204 23.4634 33.1744 24.6659C32.6268 25.8684 31.6176 26.7524 30.1649 28.0215L29.9731 28.1889L26.6614 31.0846C25.1826 32.3765 23.9883 33.4214 22.9304 34.1331C21.8286 34.8741 20.7513 35.3437 19.5 35.3437C18.2488 35.3437 17.1714 34.8741 16.0696 34.1331C15.0118 33.4214 13.8158 32.3765 12.3386 31.0846L9.02688 28.1889L8.83512 28.0215C7.38238 26.7524 6.37163 25.87 5.82563 24.6659C5.27963 23.4634 5.27963 22.1211 5.28125 20.1922V4.46875H3.25C2.92677 4.46875 2.61677 4.34035 2.38821 4.11179C2.15965 3.88323 2.03125 3.57323 2.03125 3.25ZM7.71875 4.46875V19.9387C7.71875 22.2251 7.74475 22.9937 8.04538 23.6584C8.346 24.3214 8.90988 24.8479 10.6324 26.3542L13.8824 29.1947C15.4359 30.5532 16.5149 31.4957 17.4314 32.11C18.317 32.7064 18.9183 32.9062 19.5 32.9062C20.0801 32.9062 20.683 32.708 21.5703 32.11C22.4851 31.4957 23.5641 30.5532 25.1176 29.1947L28.3676 26.3542C30.0901 24.8479 30.654 24.323 30.9546 23.6584C31.2553 22.9954 31.2813 22.2251 31.2813 19.9387V4.46875H7.71875ZM12.5938 13C12.5938 12.6768 12.7222 12.3668 12.9507 12.1382C13.1793 11.9097 13.4893 11.7812 13.8125 11.7812H25.1875C25.5107 11.7812 25.8207 11.9097 26.0493 12.1382C26.2778 12.3668 26.4063 12.6768 26.4063 13C26.4063 13.3232 26.2778 13.6332 26.0493 13.8618C25.8207 14.0903 25.5107 14.2187 25.1875 14.2187H13.8125C13.4893 14.2187 13.1793 14.0903 12.9507 13.8618C12.7222 13.6332 12.5938 13.3232 12.5938 13ZM12.5938 21.125C12.5938 20.8018 12.7222 20.4918 12.9507 20.2632C13.1793 20.0347 13.4893 19.9062 13.8125 19.9062H25.1875C25.5107 19.9062 25.8207 20.0347 26.0493 20.2632C26.2778 20.4918 26.4063 20.8018 26.4063 21.125C26.4063 21.4482 26.2778 21.7582 26.0493 21.9868C25.8207 22.2153 25.5107 22.3437 25.1875 22.3437H13.8125C13.4893 22.3437 13.1793 22.2153 12.9507 21.9868C12.7222 21.7582 12.5938 21.4482 12.5938 21.125Z" fill="#141414"/>
</svg>
